<mxfile host="app.diagrams.net" modified="2023-03-29T07:45:58.296Z" agent="Mozilla/5.0 (X11; Linux x86_64) AppleWebKit/537.36 (KHTML, like Gecko) Chrome/110.0.0.0 Safari/537.36" etag="m5DTliUQ95U9bbs0pOxw" version="21.1.1" type="github">
  <diagram id="RAASg_6fs2K5VwO5oAlz" name="第 1 页">
    <mxGraphModel dx="1434" dy="750" grid="1" gridSize="10" guides="1" tooltips="1" connect="1" arrows="1" fold="1" page="1" pageScale="1" pageWidth="827" pageHeight="1169" math="0" shadow="0">
      <root>
        <mxCell id="0" />
        <mxCell id="1" parent="0" />
        <mxCell id="nIZ4T1XGIyiWmsCvsnDt-17" value="" style="group" vertex="1" connectable="0" parent="1">
          <mxGeometry x="250" y="180" width="340" height="380" as="geometry" />
        </mxCell>
        <mxCell id="nIZ4T1XGIyiWmsCvsnDt-15" value="" style="rounded=0;whiteSpace=wrap;html=1;" vertex="1" parent="nIZ4T1XGIyiWmsCvsnDt-17">
          <mxGeometry width="340" height="380" as="geometry" />
        </mxCell>
        <mxCell id="nIZ4T1XGIyiWmsCvsnDt-1" value="客户端" style="rounded=0;whiteSpace=wrap;html=1;" vertex="1" parent="nIZ4T1XGIyiWmsCvsnDt-17">
          <mxGeometry x="10" y="30" width="120" height="60" as="geometry" />
        </mxCell>
        <mxCell id="nIZ4T1XGIyiWmsCvsnDt-2" value="服务端" style="rounded=0;whiteSpace=wrap;html=1;" vertex="1" parent="nIZ4T1XGIyiWmsCvsnDt-17">
          <mxGeometry x="10" y="180" width="120" height="60" as="geometry" />
        </mxCell>
        <mxCell id="nIZ4T1XGIyiWmsCvsnDt-6" style="edgeStyle=orthogonalEdgeStyle;rounded=0;orthogonalLoop=1;jettySize=auto;html=1;exitX=0.5;exitY=1;exitDx=0;exitDy=0;entryX=0.5;entryY=0;entryDx=0;entryDy=0;startArrow=classic;startFill=1;" edge="1" parent="nIZ4T1XGIyiWmsCvsnDt-17" source="nIZ4T1XGIyiWmsCvsnDt-1" target="nIZ4T1XGIyiWmsCvsnDt-2">
          <mxGeometry relative="1" as="geometry" />
        </mxCell>
        <mxCell id="nIZ4T1XGIyiWmsCvsnDt-3" value="Celery" style="rounded=0;whiteSpace=wrap;html=1;" vertex="1" parent="nIZ4T1XGIyiWmsCvsnDt-17">
          <mxGeometry x="200" y="180" width="120" height="60" as="geometry" />
        </mxCell>
        <mxCell id="nIZ4T1XGIyiWmsCvsnDt-8" style="edgeStyle=orthogonalEdgeStyle;rounded=0;orthogonalLoop=1;jettySize=auto;html=1;exitX=1;exitY=0.5;exitDx=0;exitDy=0;entryX=0;entryY=0.5;entryDx=0;entryDy=0;startArrow=classic;startFill=1;" edge="1" parent="nIZ4T1XGIyiWmsCvsnDt-17" source="nIZ4T1XGIyiWmsCvsnDt-2" target="nIZ4T1XGIyiWmsCvsnDt-3">
          <mxGeometry relative="1" as="geometry" />
        </mxCell>
        <mxCell id="nIZ4T1XGIyiWmsCvsnDt-4" value="数据库" style="rounded=0;whiteSpace=wrap;html=1;" vertex="1" parent="nIZ4T1XGIyiWmsCvsnDt-17">
          <mxGeometry x="10" y="310" width="120" height="60" as="geometry" />
        </mxCell>
        <mxCell id="nIZ4T1XGIyiWmsCvsnDt-7" style="edgeStyle=orthogonalEdgeStyle;rounded=0;orthogonalLoop=1;jettySize=auto;html=1;exitX=0.5;exitY=1;exitDx=0;exitDy=0;entryX=0.5;entryY=0;entryDx=0;entryDy=0;startArrow=classic;startFill=1;" edge="1" parent="nIZ4T1XGIyiWmsCvsnDt-17" source="nIZ4T1XGIyiWmsCvsnDt-2" target="nIZ4T1XGIyiWmsCvsnDt-4">
          <mxGeometry relative="1" as="geometry" />
        </mxCell>
        <mxCell id="nIZ4T1XGIyiWmsCvsnDt-16" value="weblate翻译平台" style="text;html=1;align=center;verticalAlign=middle;resizable=0;points=[];autosize=1;strokeColor=none;fillColor=none;" vertex="1" parent="nIZ4T1XGIyiWmsCvsnDt-17">
          <mxGeometry x="230" width="110" height="30" as="geometry" />
        </mxCell>
      </root>
    </mxGraphModel>
  </diagram>
</mxfile>
